# xmcd
#
# Track frame offsets:
#	183
#	12828
#	21153
#	31783
#	43778
#	53455
#	63180
#	72033
#	79995
#	89698
#	98735
#	110798
#	119360
#	128170
#	135850
#
# Disc length: 1921 seconds
#
# Revision: 0
# Processed by: cddbd v1.5.2PL0 Copyright (c) Steve Scherf et al.
# Submitted via: EasyCDDAExtractor 2010.6.0.0
#
DISCID=bd077f0f
DTITLE=제09회(1991)_MBC창작동요제
DYEAR=1991
DGENRE=
TTITLE0=하늘나라 동화 (대상)
TTITLE1=윷놀이 (은상)
TTITLE2=어여쁜 친구 (장려상)
TTITLE3=산골길 바닷길
TTITLE4=봄을 그리는 도화지
TTITLE5=노래 부르자
TTITLE6=참 예쁜 무지개야
TTITLE7=아기 염소 (금상, 인기상)
TTITLE8=바다 (동상)
TTITLE9=하나가 되자 (장려상)
TTITLE10=별이야기
TTITLE11=숲 속은 즐거워
TTITLE12=싱그런 아침
TTITLE13=신바람
TTITLE14=밝은 나무숲 심자
EXTD=
EXTT0=
EXTT1=
EXTT2=
EXTT3=
EXTT4=
EXTT5=
EXTT6=
EXTT7=
EXTT8=
EXTT9=
EXTT10=
EXTT11=
EXTT12=
EXTT13=
EXTT14=
PLAYORDER=
